<?xml version="1.0"?>
<svg width="150" height="150" xmlns="http://www.w3.org/2000/svg">
 <title>SchemaCrawler Logo</title>
  <g>
   <g>
    <path fill="#7B2A90" stroke="#010101" stroke-linecap="round" stroke-linejoin="round" d="m75.75,24.877014c-18.902,0 -34.25,7.283997 -34.25,16.257996v65.03299c0,8.973999 15.348,16.257996 34.25,16.257996c18.901001,0 34.25,-7.283997 34.25,-16.257996v-65.03299h-0.021004c0,-8.973999 -15.327995,-16.257996 -34.228996,-16.257996z"/>
    <path fill="#7B2A90" stroke="#010101" stroke-linecap="round" stroke-linejoin="round" d="m108.810997,41.13501c0,8.666992 -14.798996,15.692993 -33.053986,15.692993c-18.254013,0 -33.052002,-7.026001 -33.052002,-15.692993c0,-8.666992 14.798,-15.691986 33.052002,-15.691986c18.254997,-0.001038 33.053986,7.024963 33.053986,15.691986z"/>
   </g>
   <g>
    <g>
     <path fill="#FFFFFF" stroke="#000000" stroke-miterlimit="10" d="m44.548,88.937988c2.416,14.643005 13.439999,13.578003 18.571003,9.924011c-2.736,9.071014 -20.525002,9.436005 -18.571003,-9.924011z"/>
     <path fill="#FFFFFF" stroke="#000000" stroke-miterlimit="10" d="m46.907001,103.463989c5.120998,6.787994 11.291,4.957001 14.353001,0.115997c0.530998,8.739014 -12.563004,10.636017 -14.353001,-0.115997z"/>
     <path fill="#FFFFFF" stroke="#000000" stroke-miterlimit="10" d="m51.923,112.319c5.182999,3.372986 8.133999,0.115997 8.891003,-3.43399c1.805,8.530975 -5.783005,9.04599 -8.891003,3.43399z"/>
     <path fill="#FFFFFF" stroke="#000000" stroke-miterlimit="10" d="m56.854,117.02301c2.852001,1.644989 5.230999,-0.669006 5.438999,-3.367004c2.154999,5.23999 -3.217999,7.160004 -5.438999,3.367004z"/>
     <path fill="#FFFFFF" stroke="#000000" stroke-miterlimit="10" d="m52.631001,69.351013c-9.396,17.10199 6.124001,29.964996 15.714001,24.074982c-14.942001,14.274994 -31.549,-9.102997 -15.714001,-24.074982z"/>
     <path fill="#FFFFFF" stroke="#000000" stroke-miterlimit="10" d="m71.318001,59.515991c-18.235001,6.384003 -12.403999,30.596985 1.985001,31.428009c-21.801003,7.548004 -28.291,-30.589996 -1.985001,-31.428009z"/>
    </g>
    <g>
     <path fill="#FFFFFF" stroke="#000000" stroke-miterlimit="10" d="m88.380997,98.536987c5.131004,3.653992 16.155014,4.718018 18.571014,-9.924011c1.952995,19.360016 -15.835014,18.994019 -18.571014,9.924011z"/>
     <path fill="#FFFFFF" stroke="#000000" stroke-miterlimit="10" d="m90.238998,103.255005c3.063004,4.839996 9.232002,6.671997 14.353004,-0.115997c-1.789001,10.751984 -14.883003,8.85498 -14.353004,0.115997z"/>
     <path fill="#FFFFFF" stroke="#000000" stroke-miterlimit="10" d="m90.686996,108.559998c0.756004,3.549988 3.707001,6.807007 8.890015,3.43399c-3.108002,5.612 -10.696014,5.096008 -8.890015,-3.43399z"/>
     <path fill="#FFFFFF" stroke="#000000" stroke-miterlimit="10" d="m89.207001,113.330994c0.208,2.696991 2.586998,5.011993 5.437996,3.367004c-2.219986,3.792999 -7.592987,1.873016 -5.437996,-3.367004z"/>
     <path fill="#FFFFFF" stroke="#000000" stroke-miterlimit="10" d="m83.154999,93.100006c9.590004,5.890991 25.109001,-6.972992 15.714005,-24.074982c15.834999,14.972961 -0.772003,38.349976 -15.714005,24.074982z"/>
     <path fill="#FFFFFF" stroke="#000000" stroke-miterlimit="10" d="m78.195999,90.618988c14.389999,-0.830994 20.221001,-25.044006 1.986,-31.428009c26.305,0.837036 19.817001,38.976013 -1.986,31.428009z"/>
    </g>
   </g>
  </g>
</svg>