<?xml version="1.0" encoding="UTF-8"?>
<!DOCTYPE svg PUBLIC "-//W3C//DTD SVG 1.1//EN" "http://www.w3.org/Graphics/SVG/1.1/DTD/svg11.dtd">
<svg xmlns="http://www.w3.org/2000/svg" xmlns:xlink="http://www.w3.org/1999/xlink" version="1.1" preserveAspectRatio="xMidYMid meet" viewBox="0 0 150 150" width="150" height="150">
  <defs>
    <path d="M10 31.67C10 40.33 10 109.67 10 118.33C10 130.29 39.13 140 75 140C110.87 140 140 130.29 140 118.33C140 112.56 140 83.67 140 31.67C139.98 31.67 139.96 31.67 139.96 31.67C139.96 19.71 110.87 10 75 10C39.13 10 10 19.71 10 31.67Z" id="e1bsvuJJQV" />
    <path d="M75 45.3C40.36 45.3 12.27 37.4 12.27 27.65C12.27 17.9 40.36 10 75 10C109.64 10 137.73 17.9 137.73 27.65C137.73 37.4 109.64 45.3 75 45.3Z" id="b12NnrJ84" />
    <path d="M51.03 103.63C45.84 116 12.08 116.5 15.78 90.11C20.37 110.07 41.29 108.61 51.03 103.63Z" id="d1UjwLgAN" />
    <path d="M83.41 50.58C133.33 51.72 121.02 103.71 79.64 93.42C106.95 92.29 118.02 59.28 83.41 50.58Z" id="a37p6S2z8X" />
    <path d="M47.5 110.07C48.51 121.98 23.66 124.56 20.26 109.91C29.98 119.16 41.69 116.66 47.5 110.07Z" id="b6eQmYXOdn" />
    <path d="M118.88 62.96C148.93 83.37 117.41 115.24 89.05 95.78C107.25 103.81 136.71 86.27 118.88 62.96Z" id="a5czXR7ye5" />
    <path d="M46.65 117.3C50.08 128.93 35.68 129.63 29.78 121.98C39.62 126.58 45.22 122.14 46.65 117.3Z" id="aBpqLzCfg" />
    <path d="M110.86 127.95C106.65 133.12 96.45 130.5 100.54 123.36C100.93 127.03 105.45 130.19 110.86 127.95Z" id="b8QaD8LiC" />
    <path d="M49.46 123.8C53.55 130.94 43.35 133.56 39.14 128.39C44.55 130.63 49.07 127.48 49.46 123.8Z" id="a9zWdgunQ" />
    <path d="M120.22 121.54C114.32 129.19 99.92 128.48 103.35 116.85C104.78 121.69 110.38 126.13 120.22 121.54Z" id="a6tZXthQTR" />
    <path d="M60.95 96.22C32.59 115.68 1.07 83.81 31.12 63.4C13.29 86.72 42.75 104.25 60.95 96.22Z" id="jrRdbEQyt" />
    <path d="M129.74 109.46C126.34 124.12 101.49 121.54 102.5 109.62C108.31 116.22 120.02 118.72 129.74 109.46Z" id="c15bXT4mAo" />
    <path d="M70.28 93.42C28.91 103.71 16.59 51.72 66.51 50.58C31.91 59.28 42.97 92.29 70.28 93.42Z" id="e4RWMTPqoe" />
    <path d="M134.22 89.66C137.92 116.05 104.16 115.56 98.97 103.19C108.71 108.17 129.63 109.62 134.22 89.66Z" id="aHVWsSIsU" />
  </defs>
  <g>
    <g>
      <g>
        <use xlink:href="#e1bsvuJJQV" opacity="1" fill="#7b2a90" fill-opacity="1" />
        <g>
          <use xlink:href="#e1bsvuJJQV" opacity="1" fill-opacity="0" stroke="#000000" stroke-width="2" stroke-opacity="1" />
        </g>
      </g>
      <g>
        <use xlink:href="#b12NnrJ84" opacity="1" fill="#9331ad" fill-opacity="1" />
        <g>
          <use xlink:href="#b12NnrJ84" opacity="1" fill-opacity="0" stroke="#000000" stroke-width="2" stroke-opacity="1" />
        </g>
      </g>
      <g>
        <use xlink:href="#d1UjwLgAN" opacity="1" fill="#ffffff" fill-opacity="1" />
        <g>
          <use xlink:href="#d1UjwLgAN" opacity="1" fill-opacity="0" stroke="#2a2a2a" stroke-width="1" stroke-opacity="1" />
        </g>
      </g>
      <g>
        <use xlink:href="#a37p6S2z8X" opacity="1" fill="#ffffff" fill-opacity="1" />
        <g>
          <use xlink:href="#a37p6S2z8X" opacity="1" fill-opacity="0" stroke="#2a2a2a" stroke-width="1" stroke-opacity="1" />
        </g>
      </g>
      <g>
        <use xlink:href="#b6eQmYXOdn" opacity="1" fill="#ffffff" fill-opacity="1" />
        <g>
          <use xlink:href="#b6eQmYXOdn" opacity="1" fill-opacity="0" stroke="#2a2a2a" stroke-width="1" stroke-opacity="1" />
        </g>
      </g>
      <g>
        <use xlink:href="#a5czXR7ye5" opacity="1" fill="#ffffff" fill-opacity="1" />
        <g>
          <use xlink:href="#a5czXR7ye5" opacity="1" fill-opacity="0" stroke="#2a2a2a" stroke-width="1" stroke-opacity="1" />
        </g>
      </g>
      <g>
        <use xlink:href="#aBpqLzCfg" opacity="1" fill="#ffffff" fill-opacity="1" />
        <g>
          <use xlink:href="#aBpqLzCfg" opacity="1" fill-opacity="0" stroke="#2a2a2a" stroke-width="1" stroke-opacity="1" />
        </g>
      </g>
      <g>
        <use xlink:href="#b8QaD8LiC" opacity="1" fill="#ffffff" fill-opacity="1" />
        <g>
          <use xlink:href="#b8QaD8LiC" opacity="1" fill-opacity="0" stroke="#2a2a2a" stroke-width="1" stroke-opacity="1" />
        </g>
      </g>
      <g>
        <use xlink:href="#a9zWdgunQ" opacity="1" fill="#ffffff" fill-opacity="1" />
        <g>
          <use xlink:href="#a9zWdgunQ" opacity="1" fill-opacity="0" stroke="#2a2a2a" stroke-width="1" stroke-opacity="1" />
        </g>
      </g>
      <g>
        <use xlink:href="#a6tZXthQTR" opacity="1" fill="#ffffff" fill-opacity="1" />
        <g>
          <use xlink:href="#a6tZXthQTR" opacity="1" fill-opacity="0" stroke="#2a2a2a" stroke-width="1" stroke-opacity="1" />
        </g>
      </g>
      <g>
        <use xlink:href="#jrRdbEQyt" opacity="1" fill="#ffffff" fill-opacity="1" />
        <g>
          <use xlink:href="#jrRdbEQyt" opacity="1" fill-opacity="0" stroke="#2a2a2a" stroke-width="1" stroke-opacity="1" />
        </g>
      </g>
      <g>
        <use xlink:href="#c15bXT4mAo" opacity="1" fill="#ffffff" fill-opacity="1" />
        <g>
          <use xlink:href="#c15bXT4mAo" opacity="1" fill-opacity="0" stroke="#2a2a2a" stroke-width="1" stroke-opacity="1" />
        </g>
      </g>
      <g>
        <use xlink:href="#e4RWMTPqoe" opacity="1" fill="#ffffff" fill-opacity="1" />
        <g>
          <use xlink:href="#e4RWMTPqoe" opacity="1" fill-opacity="0" stroke="#2a2a2a" stroke-width="1" stroke-opacity="1" />
        </g>
      </g>
      <g>
        <use xlink:href="#aHVWsSIsU" opacity="1" fill="#ffffff" fill-opacity="1" />
        <g>
          <use xlink:href="#aHVWsSIsU" opacity="1" fill-opacity="0" stroke="#2a2a2a" stroke-width="1" stroke-opacity="1" />
        </g>
      </g>
    </g>
  </g>
</svg>
