<?xml version="1.0" encoding="UTF-8"?>
<svg xmlns="http://www.w3.org/2000/svg"
     xmlns:xlink="http://www.w3.org/1999/xlink"
     width="150"
     height="150">
  <path d="m11,32.67c0,8.66 0,78 0,86.66c0,11.96 29.13,21.67 65,21.67c35.87,0 65,-9.71 65,-21.67c0,-5.77 0,-34.66 0,-86.66c-0.02,0 -0.04,0 -0.04,0c0,-11.96 -29.09,-21.67 -64.96,-21.67c-35.87,0 -65,9.71 -65,21.67z"
        fill="#6A1E74"
        stroke="#1C1E29"
        stroke-width="2"
        id="CYLINDER" />
  <path d="m76,46.3c-34.64,0 -62.73,-7.9 -62.73,-17.65c0,-9.75 28.09,-17.65 62.73,-17.65c34.64,0 62.73,7.9 62.73,17.65c0,9.75 -28.09,17.65 -62.73,17.65z"
        fill="#7B2481"
        stroke="#1C1E29"
        stroke-width="2"
        id="TOP" />
  <path d="m71.28,95.25333c-41.37,10.29 -53.69,-41.7 -3.77,-42.84c-34.6,8.7 -23.54,41.71 3.77,42.84z"
        fill="#FFFFFF"
        stroke="#1C1E29"
        id="L1" />
  <path d="m61.95,98.05333c-28.36,19.46 -59.88,-12.41 -29.83,-32.82c-17.83,23.32 11.63,40.85 29.83,32.82z"
        fill="#FFFFFF"
        stroke="#1C1E29"
        id="L2" />
  <path d="m52.03,105.46333c-5.19,12.37 -38.95,12.87 -35.25,-13.52c4.59,19.96 25.51,18.5 35.25,13.52z"
        fill="#FFFFFF"
        stroke="#1C1E29"
        id="L3" />
  <path d="m48.5,111.90333c1.01,11.91 -23.84,14.49 -27.24,-0.16c9.72,9.25 21.43,6.75 27.24,0.16z"
        fill="#FFFFFF"
        stroke="#1C1E29"
        id="L4" />
  <path d="m47.65,119.13333c3.43,11.63 -10.97,12.33 -16.87,4.68c9.84,4.6 15.44,0.16 16.87,-4.68z"
        fill="#FFFFFF"
        stroke="#1C1E29"
        id="L5" />
  <path d="m84.41,52.41333c49.92,1.14 37.61,53.13 -3.77,42.84c27.31,-1.13 38.38,-34.14 3.77,-42.84z"
        fill="#FFFFFF"
        stroke="#1C1E29"
        id="R1" />
  <path d="m119.88,64.79333c30.05,20.41 -1.47,52.28 -29.83,32.82c18.2,8.03 47.66,-9.51 29.83,-32.82z"
        fill="#FFFFFF"
        stroke="#1C1E29"
        id="R2" />
  <path d="m135.22,91.49333c3.7,26.39 -30.06,25.9 -35.25,13.53c9.74,4.98 30.66,6.43 35.25,-13.53z"
        fill="#FFFFFF"
        stroke="#1C1E29"
        id="R3" />
  <path d="m130.74,111.29333c-3.4,14.66 -28.25,12.08 -27.24,0.16c5.81,6.6 17.52,9.1 27.24,-0.16z"
        fill="#FFFFFF"
        stroke="#1C1E29"
        id="R4" />
  <path d="m121.22,123.37333c-5.9,7.65 -20.3,6.94 -16.87,-4.69c1.43,4.84 7.03,9.28 16.87,4.69z"
        fill="#FFFFFF"
        stroke="#1C1E29"
        id="R5" />
</svg>